<?xml version="1.0" encoding="utf-8"?>
<!-- Generator: Adobe Illustrator 25.4.1, SVG Export Plug-In . SVG Version: 6.00 Build 0)  -->
<svg version="1.1" id="Layer_1" xmlns="http://www.w3.org/2000/svg" xmlns:xlink="http://www.w3.org/1999/xlink" x="0px" y="0px"
	 viewBox="0 0 134.43 135.03" style="enable-background:new 0 0 134.43 135.03;" xml:space="preserve">
<style type="text/css">
	.st0{fill-rule:evenodd;clip-rule:evenodd;fill:url(#SVGID_1_);}
	.st1{fill:#FFFFFF;}
</style>
<g>
	<linearGradient id="SVGID_1_" gradientUnits="userSpaceOnUse" x1="34.531" y1="29.1918" x2="113.7702" y2="122.0929">
		<stop  offset="0" style="stop-color:#D36044"/>
		<stop  offset="1" style="stop-color:#273A90"/>
	</linearGradient>
	<circle class="st0" cx="67.22" cy="67.51" r="60.11"/>
	<g>
		<g>
			<path class="st1" d="M97.02,81.13h-5.59v-3.61h5.59c6.19,0,11.23-5.04,11.23-11.23s-5.04-11.23-11.23-11.23
				c-1.16,0-2.31,0.18-3.42,0.53l-2.9,0.93l0.58-2.99c0.14-0.72,0.21-1.44,0.21-2.14c0-6.19-5.04-11.23-11.23-11.23
				c-2.69,0-5.29,0.97-7.33,2.74l-2.01,1.74l-0.88-2.51c-2.36-6.75-8.74-11.28-15.87-11.28c-9.28,0-16.83,7.55-16.83,16.83
				c0,1.73,0.27,3.44,0.79,5.09l0.69,2.17l-2.27,0.17c-5.81,0.44-10.37,5.36-10.37,11.19c0,6.19,5.04,11.23,11.23,11.23H43v3.61
				h-5.59c-8.19,0-14.85-6.66-14.85-14.85c0-6.98,4.94-12.97,11.59-14.47c-0.28-1.36-0.43-2.75-0.43-4.15
				c0-11.27,9.17-20.44,20.44-20.44c7.86,0,14.97,4.53,18.36,11.49c2.32-1.42,4.99-2.18,7.73-2.18c8.19,0,14.85,6.66,14.85,14.85
				c0,0.06,0,0.12,0,0.18c0.64-0.08,1.28-0.12,1.92-0.12c8.19,0,14.85,6.66,14.85,14.85S105.21,81.13,97.02,81.13z"/>
			<path class="st1" d="M70.92,45.96c-0.13-1.32-0.42-2.62-0.85-3.86l3.41-1.19c0.53,1.51,0.88,3.09,1.04,4.7L70.92,45.96z"/>
			<path class="st1" d="M92.98,59.03l-3.09-1.86c0.68-1.13,1.15-2.36,1.4-3.65l3.55,0.68C94.51,55.91,93.88,57.53,92.98,59.03z"/>
			<path class="st1" d="M40.71,55.54c-1.35-0.41-2.75-0.57-4.17-0.46l-0.27-3.6c1.87-0.14,3.72,0.06,5.5,0.61L40.71,55.54z"/>
			<path class="st1" d="M89.51,97.95H85.9V73.73c0-0.03-0.03-0.06-0.06-0.06h-14.9v-3.61h14.9c2.02,0,3.67,1.65,3.67,3.67V97.95z"/>
			<path class="st1" d="M48.53,97.95h-3.61V73.73c0-2.02,1.65-3.67,3.67-3.67h14.9v3.61h-14.9c-0.03,0-0.06,0.03-0.06,0.06V97.95z"
				/>
			<path class="st1" d="M91.43,105.34H43c-0.68,0-1.31-0.39-1.62-1l-1.86-3.73c-0.13-0.25-0.19-0.53-0.19-0.81v-1.86
				c0-1,0.81-1.81,1.81-1.81H93.3c1,0,1.81,0.81,1.81,1.81v1.86c0,0.28-0.07,0.56-0.19,0.81l-1.86,3.73
				C92.74,104.96,92.12,105.34,91.43,105.34z M44.12,101.73h46.2l0.99-1.98H43.13L44.12,101.73z"/>
			<rect x="65.41" y="56.96" class="st1" width="3.61" height="29.81"/>
		</g>
		<g>
			<path class="st1" d="M62.18,78.52c-1.65-0.03-2.26,1.07-1.35,2.45l5.03,7.67c0.9,1.38,2.39,1.39,3.31,0.01l4.92-7.37
				c0.92-1.37,0.32-2.52-1.33-2.55L62.18,78.52z"/>
		</g>
		<g>
			<path class="st1" d="M62.18,64.34c-1.65,0.03-2.26-1.07-1.35-2.45l5.03-7.67c0.9-1.38,2.39-1.39,3.31-0.01l4.92,7.37
				c0.92,1.37,0.32,2.52-1.33,2.55L62.18,64.34z"/>
		</g>
	</g>
</g>
</svg>
